<?xml version="1.0" encoding="UTF-8" standalone="no"?>
<!DOCTYPE svg PUBLIC "-//W3C//DTD SVG 1.1//EN" "http://www.w3.org/Graphics/SVG/1.1/DTD/svg11.dtd">
<svg width="100%" height="100%" viewBox="0 0 16 16" version="1.1" xmlns="http://www.w3.org/2000/svg" xmlns:xlink="http://www.w3.org/1999/xlink" xml:space="preserve" xmlns:serif="http://www.serif.com/" style="fill-rule:evenodd;clip-rule:evenodd;stroke-linejoin:round;stroke-miterlimit:2;">
    <g>
        <path d="M15,8C15,11.866 11.866,15 8,15C4.134,15 1,11.866 1,8C1,4.134 4.134,1 8,1C11.866,1 15,4.134 15,8" style="fill:rgb(249,139,158);fill-opacity:0.6;"/>
        <g transform="matrix(1,0,0,1,4.74425,6)">
            <path d="M6.992,2C6.991,1.251 6.635,0 4.982,0C4.112,0 3.658,0.502 3.599,0.6C3.284,0.194 2.944,0 2.1,0C1.632,0 1.265,0.1 1,0.299L1,0L0,0L0,5L1,5C0.967,3.156 0.967,2.156 1,2C1.05,1.766 1.05,1 2,1C2.95,1 2.999,1.537 3,2L3,5L4,5L4,2C4,1.686 3.959,1 4.982,1C6.004,1 6.004,1.74 6.005,2L6.005,5L6.997,5L6.992,2Z" style="fill:rgb(35,31,32);fill-opacity:0.7;"/>
        </g>
    </g>
</svg>
