<?xml version="1.0" encoding="UTF-8" standalone="no"?>
<!DOCTYPE svg PUBLIC "-//W3C//DTD SVG 1.1//EN" "http://www.w3.org/Graphics/SVG/1.1/DTD/svg11.dtd">
<svg width="100%" height="100%" viewBox="0 0 16 16" version="1.1" xmlns="http://www.w3.org/2000/svg" xmlns:xlink="http://www.w3.org/1999/xlink" xml:space="preserve" xmlns:serif="http://www.serif.com/" style="fill-rule:evenodd;clip-rule:evenodd;stroke-linejoin:round;stroke-miterlimit:2;">
    <g transform="matrix(1.18821,0,0,1.18821,-1.91775,-2.7628)">
        <g transform="matrix(8.45483,0,0,8.45483,15.6038,14.8092)">
        </g>
        <text x="10.531px" y="14.809px" style="font-family:'JetBrainsMono-Bold', 'JetBrains Mono', monospace;font-weight:700;font-size:8.455px;fill:rgb(64,182,224);">C</text>
    </g>
    <path d="M15,7.171C14.61,6.993 14.16,6.9 13.649,6.9C13.086,6.9 12.599,7.01 12.187,7.22C11.75,7.443 11.413,7.759 11.174,8.166C10.941,8.563 10.819,9.03 10.819,9.57L10.819,12.764C10.819,12.844 10.821,12.923 10.827,13L1,13L1,2.051C1,2.023 1.023,2 1.051,2L4.979,2C5.616,2.035 6.222,2.286 6.696,2.711L7.985,4L15,4L15,7.171Z" style="fill:rgb(185,155,248);fill-opacity:0.6;"/>
</svg>
