<?xml version="1.0" encoding="UTF-8" standalone="no"?>
<!DOCTYPE svg PUBLIC "-//W3C//DTD SVG 1.1//EN" "http://www.w3.org/Graphics/SVG/1.1/DTD/svg11.dtd">
<svg width="100%" height="100%" viewBox="0 0 16 16" version="1.1" xmlns="http://www.w3.org/2000/svg" xmlns:xlink="http://www.w3.org/1999/xlink" xml:space="preserve" xmlns:serif="http://www.serif.com/" style="fill-rule:evenodd;clip-rule:evenodd;stroke-linejoin:round;stroke-miterlimit:2;">
    <g>
        <path d="M15,8C15,11.866 11.866,15 8,15C4.134,15 1,11.866 1,8C1,4.134 4.134,1 8,1C11.866,1 15,4.134 15,8" style="fill:rgb(185,155,248);fill-opacity:0.6;"/>
        <g transform="matrix(1,0,0,1,6,5)">
            <path d="M0.997,2.802C0.997,3.836 1.239,4.877 2.535,4.877C3.832,4.877 4,3.464 4,2.792C4,2.106 3.902,0.746 2.524,0.746C1.147,0.746 0.997,1.769 0.997,2.802ZM1,5C1.008,5.074 1.007,6.074 0.997,8L0,8L0,0L0.997,0L0.997,0.746C1.367,0.249 1.94,0 2.716,0C3.881,0 5,0.578 5,2.802C5,5.026 3.655,5.623 2.716,5.623C2.091,5.623 1.519,5.415 1,5Z" style="fill:rgb(35,31,32);fill-opacity:0.7;"/>
        </g>
    </g>
</svg>
